<svg xmlns="http://www.w3.org/2000/svg" viewBox="0 0 512 512" fill="none">
  <defs>
    <linearGradient id="bgGrad" x1="0" y1="0" x2="512" y2="512" gradientUnits="userSpaceOnUse">
      <stop offset="0%" stop-color="#3B82F6"/>
      <stop offset="50%" stop-color="#6366F1"/>
      <stop offset="100%" stop-color="#8B5CF6"/>
    </linearGradient>
    <linearGradient id="handGrad" x1="160" y1="120" x2="360" y2="400" gradientUnits="userSpaceOnUse">
      <stop offset="0%" stop-color="#FFFFFF"/>
      <stop offset="100%" stop-color="#E0E7FF"/>
    </linearGradient>
  </defs>
  <rect width="512" height="512" rx="128" fill="url(#bgGrad)"/>
  <!-- Signing Hand Silhouette with sound waves / bridge arc -->
  <path d="M210 130 C210 115, 222 105, 235 105 C248 105, 260 115, 260 130 L260 230 L260 115 C260 100, 272 90, 285 90 C298 90, 310 100, 310 115 L310 235 L310 135 C310 120, 322 110, 335 110 C348 110, 360 120, 360 135 L360 260 L360 170 C360 155, 372 145, 385 145 C398 145, 410 155, 410 170 L410 310 C410 380, 350 420, 280 420 C220 420, 160 380, 150 330 L130 250 C125 235, 135 220, 150 220 C162 220, 172 228, 177 240 L210 300 L210 130 Z" fill="url(#handGrad)"/>
  <circle cx="130" cy="140" r="16" fill="#67E8F9"/>
  <path d="M90 140 A45 45 0 0 1 130 95" stroke="#67E8F9" stroke-width="8" stroke-linecap="round"/>
  <path d="M70 140 A70 70 0 0 1 130 70" stroke="#67E8F9" stroke-width="8" stroke-linecap="round"/>
</svg>
